<svg width="44" height="57" viewBox="0 0 44 57" fill="none" xmlns="http://www.w3.org/2000/svg">
<path fill-rule="evenodd" clip-rule="evenodd" d="M22 2C33.0457 2 42 11.0019 42 22.1064C42 31.8343 35.128 39.9487 25.9981 41.8109L22.6213 46.6721C22.5513 46.7734 22.4582 46.8561 22.3501 46.9131C22.2419 46.9702 22.1219 47 22 47C21.8781 47 21.7581 46.9702 21.6499 46.9131C21.5418 46.8561 21.4487 46.7734 21.3787 46.6721L18.0019 41.8109C8.87197 39.9487 2 31.8343 2 22.1064C2 11.0019 10.9543 2 22 2Z" fill="red"/>
<path fill-rule="evenodd" clip-rule="evenodd" d="M22 0C34.1603 0 44 9.90738 44 22.1064C44 32.5115 36.8449 41.2438 27.196 43.5921L24.2662 47.8099L24.2654 47.811C24.0138 48.1743 23.6778 48.4739 23.2835 48.6819C22.8888 48.8903 22.4484 49 22 49C21.5516 49 21.1112 48.8903 20.7165 48.6819C20.3222 48.4739 19.9862 48.1743 19.7347 47.8111L19.7338 47.8099L16.804 43.5921C7.15508 41.2437 0 32.5115 0 22.1064C0 9.90738 9.83974 0 22 0ZM18.0019 41.8109L21.3787 46.6721C21.4487 46.7734 21.5418 46.8561 21.6499 46.9131C21.7581 46.9702 21.8781 47 22 47C22.1219 47 22.2419 46.9702 22.3501 46.9131C22.4582 46.8561 22.5513 46.7734 22.6213 46.6721L25.9981 41.8109C35.128 39.9487 42 31.8343 42 22.1064C42 11.0019 33.0457 2 22 2C10.9543 2 2 11.0019 2 22.1064C2 31.8343 8.87197 39.9487 18.0019 41.8109Z" fill="red"/>
<path d="M24 55C24 53.8954 23.1046 53 22 53C20.8954 53 20 53.8954 20 55C20 56.1046 20.8954 57 22 57C23.1046 57 24 56.1046 24 55Z" fill="red"/>
</svg>
