<svg xmlns="http://www.w3.org/2000/svg" width="65" height="40" viewBox="0 0 65 40" fill="none">
    <mask id="path-1-inside-1_4320_1791" fill="white">
        <path fill-rule="evenodd" clip-rule="evenodd" d="M20.9121 12.8865L34.4584 5.09663C34.6928 4.96182 34.9921 5.04258 35.1269 5.27701C35.2678 5.52189 35.1727 5.8348 34.9195 5.96001L20.9121 12.8865Z"/>
    </mask>
    <path d="M20.9121 12.8865L20.4136 12.0196L21.3554 13.7829L20.9121 12.8865ZM34.4584 5.09663L34.9569 5.96352L34.4584 5.09663ZM33.9599 4.22974L20.4136 12.0196L21.4106 13.7533L34.9569 5.96352L33.9599 4.22974ZM21.3554 13.7829L35.3628 6.85641L34.4763 5.06362L20.4689 11.9901L21.3554 13.7829ZM34.2601 5.77551C34.1133 5.52028 34.2123 5.19412 34.4763 5.06362L35.3628 6.85641C36.1331 6.47548 36.4222 5.5235 35.9938 4.7785L34.2601 5.77551ZM34.9569 5.96352C34.7125 6.10403 34.4006 6.01985 34.2601 5.77551L35.9938 4.7785C35.5837 4.0653 34.6731 3.81962 33.9599 4.22974L34.9569 5.96352Z" fill="url(#paint0_linear_4320_1791)" mask="url(#path-1-inside-1_4320_1791)"/>
    <path fill-rule="evenodd" clip-rule="evenodd" d="M10.4268 24.11L30.8505 12.3649C31.0874 12.2286 31.3899 12.3102 31.5262 12.5472C31.6665 12.7911 31.5753 13.1029 31.3257 13.2328L10.4268 24.11Z" fill="url(#paint1_linear_4320_1791)"/>
    <mask id="path-4-inside-2_4320_1791" fill="white">
        <path fill-rule="evenodd" clip-rule="evenodd" d="M-7 39.4103L29.1924 18.5705C29.4314 18.4329 29.7368 18.5151 29.8744 18.7541C30.0144 18.9972 29.9268 19.3079 29.6804 19.442L-7 39.4103Z"/>
    </mask>
    <path d="M-7 39.4103L-7.499 38.5437L-6.52187 40.2886L-7 39.4103ZM29.6804 19.442L29.2023 18.5637L29.6804 19.442ZM29.1924 18.5705L29.6914 19.4371L29.1924 18.5705ZM28.6934 17.7039L-7.499 38.5437L-6.501 40.2769L29.6914 19.4371L28.6934 17.7039ZM-6.52187 40.2886L30.1585 20.3203L29.2023 18.5637L-7.47813 38.532L-6.52187 40.2886ZM29.0078 19.2531C28.8675 19.0095 28.9553 18.6981 29.2023 18.5637L30.1585 20.3203C30.8982 19.9176 31.1612 18.9849 30.741 18.2551L29.0078 19.2531ZM29.6914 19.4371C29.4518 19.5751 29.1458 19.4927 29.0078 19.2531L30.741 18.2551C30.3278 17.5375 29.411 17.2907 28.6934 17.7039L29.6914 19.4371Z" fill="url(#paint2_linear_4320_1791)" mask="url(#path-4-inside-2_4320_1791)"/>
    <path fill-rule="evenodd" clip-rule="evenodd" d="M21.1191 29.1316L34.6654 21.3417C34.8998 21.2069 35.1992 21.2877 35.334 21.5221C35.4748 21.767 35.3798 22.0799 35.1265 22.2051L21.1191 29.1316Z" fill="url(#paint3_linear_4320_1791)"/>
    <path fill-rule="evenodd" clip-rule="evenodd" d="M12.4355 39.4097L33.0953 27.5463C33.3324 27.4102 33.6349 27.492 33.7711 27.7291C33.9112 27.9731 33.8199 28.2848 33.5703 28.4147L12.4355 39.4097Z" fill="url(#paint4_linear_4320_1791)"/>
    <mask id="path-8-inside-3_4320_1791" fill="white">
        <path fill-rule="evenodd" clip-rule="evenodd" d="M29.5659 35.3338L36.8324 31.1416C37.0605 31.01 37.3521 31.0882 37.4836 31.3163C37.6259 31.5629 37.5217 31.8784 37.2606 31.9918L29.5659 35.3338Z"/>
    </mask>
    <path d="M29.5659 35.3338L29.0662 34.4676L29.9643 36.251L29.5659 35.3338ZM36.8324 31.1416L36.3327 30.2754L36.8324 31.1416ZM36.3327 30.2754L29.0662 34.4676L30.0656 36.2L37.3322 32.0078L36.3327 30.2754ZM29.9643 36.251L37.659 32.909L36.8622 31.0746L29.1675 34.4166L29.9643 36.251ZM36.6175 31.816C36.4613 31.5454 36.5756 31.1991 36.8622 31.0746L37.659 32.909C38.4678 32.5577 38.7905 31.5804 38.3498 30.8166L36.6175 31.816ZM37.3322 32.0078C37.0818 32.1522 36.7619 32.0663 36.6175 31.816L38.3498 30.8166C37.9423 30.1101 37.0392 29.8678 36.3327 30.2754L37.3322 32.0078Z" fill="url(#paint5_linear_4320_1791)" mask="url(#path-8-inside-3_4320_1791)"/>
    <path fill-rule="evenodd" clip-rule="evenodd" d="M30.4531 40.0005L41.4913 33.6848C41.7243 33.5515 42.0214 33.6323 42.1547 33.8653C42.2953 34.1111 42.197 34.4245 41.9413 34.5459L30.4531 40.0005Z" fill="url(#paint6_linear_4320_1791)"/>
    <path d="M53.5968 29.1908C53.598 29.1901 53.5992 29.1895 53.6004 29.189C53.6013 29.1889 53.6025 29.1888 53.6041 29.1888C53.6051 29.1888 53.6063 29.1888 53.6076 29.1889C53.6175 29.1894 53.6281 29.1921 53.6374 29.1966C53.6449 29.2002 53.6494 29.2038 53.652 29.2064C53.6532 29.2076 53.654 29.2086 53.6545 29.2093C53.6551 29.2116 53.6561 29.2185 53.6529 29.2305C53.6503 29.2404 53.6454 29.2503 53.6393 29.2581C53.6385 29.2591 53.6378 29.26 53.6371 29.2608C53.6361 29.262 53.6352 29.2629 53.6346 29.2635C53.6334 29.2641 53.6321 29.2646 53.6309 29.265C53.6126 29.2715 53.5917 29.2642 53.5817 29.2468C53.5702 29.2268 53.5776 29.2018 53.5968 29.1908Z" stroke="url(#paint7_linear_4320_1791)"/>
    <path fill-rule="evenodd" clip-rule="evenodd" d="M45.9883 36.3378L58.0982 29.3672L58.6026 30.2434L45.9883 36.3378Z" fill="url(#paint8_linear_4320_1791)"/>
    <path d="M60.2197 26.5038C61.6917 24.7122 62.7324 21.9346 63.1978 20.3259C63.2818 20.0357 63.5834 19.863 63.8736 19.9472C64.1013 20.0133 64.2593 20.2219 64.2497 20.4588C64.1463 23.0316 63.0724 25.6921 61.9988 27.6756C61.6349 28.3481 60.3185 27.8645 60.0363 27.1538C59.9319 26.891 60.0402 26.7223 60.2197 26.5038Z" fill="url(#paint9_linear_4320_1791)"/>
    <path d="M47.4297 1.7558C46.9238 2.1043 46.4379 2.51268 46.0415 2.98131C45.8668 3.18771 45.6332 3.28514 45.427 3.26333C44.474 3.16253 43.2074 3.09873 41.9277 3.17312C40.6567 3.24701 39.3298 3.45936 38.2827 3.93724C38.0282 4.05338 37.7615 4.03685 37.5796 3.91816C37.4482 3.83247 37.3068 3.74253 37.1592 3.6516C36.9608 3.52939 36.8353 3.29771 36.824 3.0614C36.8131 2.83247 36.9066 2.67041 37.0639 2.59284C39.4576 1.41239 43.2263 0.220499 47.3866 0.558198C47.5848 0.574289 47.7278 0.708449 47.7588 0.98611C47.7914 1.27711 47.6691 1.59089 47.4297 1.7558Z" stroke="url(#paint10_linear_4320_1791)"/>
    <path d="M63.3984 18.0143C63.0683 15.0033 61.2401 12.2751 60.2462 11.225C60.0841 11.0537 60.0223 10.6753 60.0494 10.4411C60.1388 9.66638 61.7912 9.12423 62.1542 9.8144C63.8307 13.0012 64.3332 16.1713 64.3561 18.0071C64.3598 18.3084 64.0775 18.5209 63.7835 18.4545C63.5741 18.4072 63.4218 18.2278 63.3984 18.0143Z" fill="url(#paint11_linear_4320_1791)"/>
    <path d="M57.764 9.79835C56.3169 9.69851 54.1658 9.61942 52.5775 9.78056C52.3392 9.80474 52.1106 9.69636 51.9876 9.51008C51.205 8.3252 49.691 6.23202 48.6101 5.00357C48.4821 4.85803 48.4053 4.65037 48.404 4.44586C48.4027 4.24365 48.4732 4.08777 48.5833 3.99396C49.0397 3.60487 49.5553 3.2079 50.0408 2.91117C50.5502 2.5999 50.9413 2.45312 51.1732 2.45312C51.419 2.45312 51.8746 2.54788 52.4747 2.75337C53.0595 2.95361 53.7365 3.24318 54.4075 3.59568C55.0792 3.94852 55.7344 4.35894 56.2805 4.79768C56.8256 5.23557 57.2339 5.67931 57.4563 6.09764C57.739 6.75311 58.1979 8.17306 58.2146 9.46109C58.2158 9.55709 58.1764 9.63658 58.1013 9.69844C58.0215 9.76417 57.9008 9.80779 57.764 9.79835Z" stroke="url(#paint12_linear_4320_1791)"/>
    <path d="M58.7757 12.3483L59.1041 11.9713L58.7757 12.3483C59.844 13.279 60.5427 14.7501 60.9843 16.127C61.4219 17.4913 61.5854 18.6936 61.6242 19.0198L62.1207 18.9608L61.6242 19.0198C61.6272 19.0451 61.6272 19.067 61.6242 19.093C61.5007 20.1443 60.9925 21.4184 60.3596 22.6376C59.7319 23.8469 59.0055 24.957 58.4867 25.668C58.4381 25.7345 58.3773 25.7804 58.3117 25.8056C56.4133 26.5328 53.9782 26.3376 52.6384 26.0722C52.5241 26.0496 52.415 25.9717 52.3459 25.8467L48.9421 19.6886C48.8622 19.544 48.8588 19.3692 48.9331 19.2217L52.3549 12.4304C52.4247 12.2919 52.5378 12.2147 52.6482 12.1986C54.2261 11.9684 57.0088 12.1201 58.5518 12.2598C58.6465 12.2683 58.7224 12.3019 58.7757 12.3483Z" stroke="url(#paint13_linear_4320_1791)"/>
    <path d="M50.0876 11.4678L46.9304 17.9874C46.8518 18.1498 46.6934 18.2567 46.5139 18.269C44.267 18.4224 40.5089 18.7038 38.7912 18.92C38.5949 18.9447 38.4302 18.8726 38.3395 18.7535C37.3854 17.5026 35.7329 14.9386 34.7784 13.4166C34.7057 13.3006 34.6885 13.1706 34.7219 13.0563C35.1666 11.5343 36.3102 8.67128 38.1343 6.64105C38.1713 6.59985 38.2104 6.57143 38.2503 6.55297C39.3375 6.05033 42.1335 5.23499 45.627 5.61218C45.7033 5.62042 45.7638 5.6453 45.8076 5.67815C46.6252 6.29142 48.3975 8.03212 50.0781 11.0236C50.1525 11.1561 50.158 11.3223 50.0876 11.4678Z" stroke="url(#paint14_linear_4320_1791)"/>
    <path d="M39.3871 21.2761C41.0193 21.0543 43.8725 20.7431 46.5217 20.6852C46.6962 20.6814 46.8624 20.7752 46.9526 20.9339L50.1596 26.5772C50.2573 26.7492 50.2417 26.9481 50.1352 27.0873C49.5904 27.7994 48.8006 28.7265 47.9065 29.5774C47.0064 30.4342 46.0306 31.1848 45.1147 31.5788L45.3123 32.0381L45.1147 31.5788C45.0512 31.6061 44.9766 31.6141 44.8974 31.5972C43.3401 31.2652 40.2693 30.2256 38.1886 28.2784C38.093 28.1889 38.0409 28.0455 38.0642 27.8872L38.978 21.6885C39.0103 21.4692 39.1786 21.3044 39.3871 21.2761Z" stroke="url(#paint15_linear_4320_1791)"/>
    <defs>
        <linearGradient id="paint0_linear_4320_1791" x1="20.9121" y1="4.80804" x2="35.3868" y2="4.80804" gradientUnits="userSpaceOnUse">
            <stop stop-color="#00EAFF"/>
            <stop offset="1" stop-color="#654CC8"/>
        </linearGradient>
        <linearGradient id="paint1_linear_4320_1791" x1="31.5132" y1="24.5482" x2="10.6246" y2="24.5482" gradientUnits="userSpaceOnUse">
            <stop stop-color="#F5BB6E"/>
            <stop offset="1" stop-color="#FA2ABC"/>
        </linearGradient>
        <linearGradient id="paint2_linear_4320_1791" x1="-7" y1="18.2045" x2="30.1297" y2="18.2045" gradientUnits="userSpaceOnUse">
            <stop stop-color="#00EAFF"/>
            <stop offset="1" stop-color="#654CC8"/>
        </linearGradient>
        <linearGradient id="paint3_linear_4320_1791" x1="35.3296" y1="29.5698" x2="21.3349" y2="29.5698" gradientUnits="userSpaceOnUse">
            <stop stop-color="#F5BB6E"/>
            <stop offset="1" stop-color="#FA2ABC"/>
        </linearGradient>
        <linearGradient id="paint4_linear_4320_1791" x1="33.7578" y1="39.8481" x2="12.6326" y2="39.8481" gradientUnits="userSpaceOnUse">
            <stop stop-color="#F5BB6E"/>
            <stop offset="1" stop-color="#FA2ABC"/>
        </linearGradient>
        <linearGradient id="paint5_linear_4320_1791" x1="29.5659" y1="30.8788" x2="37.7506" y2="30.8788" gradientUnits="userSpaceOnUse">
            <stop stop-color="#00EAFF"/>
            <stop offset="1" stop-color="#654CC8"/>
        </linearGradient>
        <linearGradient id="paint6_linear_4320_1791" x1="42.1542" y1="40.4392" x2="30.6744" y2="40.4392" gradientUnits="userSpaceOnUse">
            <stop stop-color="#F5BB6E"/>
            <stop offset="1" stop-color="#FA2ABC"/>
        </linearGradient>
        <linearGradient id="paint7_linear_4320_1791" x1="49.0605" y1="28.5846" x2="54.2903" y2="28.5846" gradientUnits="userSpaceOnUse">
            <stop stop-color="#00EAFF"/>
            <stop offset="1" stop-color="#654CC8"/>
        </linearGradient>
        <linearGradient id="paint8_linear_4320_1791" x1="58.3397" y1="36.7759" x2="46.209" y2="36.7759" gradientUnits="userSpaceOnUse">
            <stop stop-color="#F5BB6E"/>
            <stop offset="1" stop-color="#FA2ABC"/>
        </linearGradient>
        <linearGradient id="paint9_linear_4320_1791" x1="64.2541" y1="30.1307" x2="59.9047" y2="30.1307" gradientUnits="userSpaceOnUse">
            <stop stop-color="#FA2ABC"/>
            <stop offset="1" stop-color="#F5BB6E"/>
        </linearGradient>
        <linearGradient id="paint10_linear_4320_1791" x1="35.0757" y1="-0.0261963" x2="50.8481" y2="-0.0261965" gradientUnits="userSpaceOnUse">
            <stop stop-color="#00EAFF"/>
            <stop offset="1" stop-color="#654CC8"/>
        </linearGradient>
        <linearGradient id="paint11_linear_4320_1791" x1="64.3526" y1="18.5816" x2="59.46" y2="18.5816" gradientUnits="userSpaceOnUse">
            <stop stop-color="#F5BB6E"/>
            <stop offset="1" stop-color="#FA2ABC"/>
        </linearGradient>
        <linearGradient id="paint12_linear_4320_1791" x1="58.705" y1="10.371" x2="47.304" y2="10.371" gradientUnits="userSpaceOnUse">
            <stop stop-color="#F5BB6E"/>
            <stop offset="1" stop-color="#FA2ABC"/>
        </linearGradient>
        <linearGradient id="paint13_linear_4320_1791" x1="48.249" y1="11.4957" x2="62.1312" y2="11.4957" gradientUnits="userSpaceOnUse">
            <stop stop-color="#00EAFF"/>
            <stop offset="1" stop-color="#654CC8"/>
        </linearGradient>
        <linearGradient id="paint14_linear_4320_1791" x1="50.7453" y1="19.4968" x2="34.0877" y2="19.4968" gradientUnits="userSpaceOnUse">
            <stop stop-color="#FA2ABC"/>
            <stop offset="1" stop-color="#F5BB6E"/>
        </linearGradient>
        <linearGradient id="paint15_linear_4320_1791" x1="50.8958" y1="32.139" x2="37.4632" y2="32.139" gradientUnits="userSpaceOnUse">
            <stop stop-color="#FA2BBC"/>
            <stop offset="1" stop-color="#FA2ABC"/>
        </linearGradient>
    </defs>
</svg>
