<svg xmlns="http://www.w3.org/2000/svg" width="44" height="44" viewBox="0 0 44 44" fill="none">
    <path d="M23.2865 39.9289C22.3373 40.0245 21.4135 40.0245 20.7824 39.9239C15.6177 39.3702 11.2709 37.2562 8.00957 33.1942C4.75325 29.1373 3.42548 24.4562 4.2282 19.3322C5.69228 9.97513 13.7649 3.49714 23.0138 4.03068C32.0558 4.54912 39.255 11.6361 39.9467 20.6057C40.6535 29.6608 34.262 38.7964 23.2865 39.9289ZM30.9552 20.656C30.8744 20.5352 30.7583 20.2231 30.5311 20.0419C29.2135 18.9748 27.8857 17.9178 26.5226 16.9162C26.2803 16.735 25.7905 16.7249 25.4775 16.8256C23.9226 17.334 22.403 17.948 20.843 18.4463C20.2371 18.6376 19.9999 18.9648 19.9191 19.5537C19.6616 21.406 19.3536 23.2532 19.1113 25.1106C19.076 25.3723 19.1921 25.7699 19.3839 25.936C20.7672 27.1088 22.1859 28.2514 23.6146 29.3688C23.8166 29.5249 24.2003 29.6557 24.4022 29.5702C26.0985 28.8554 27.7797 28.1004 29.4507 27.3202C29.6527 27.2246 29.8647 26.9528 29.9051 26.7313C30.2636 24.7784 30.5867 22.8153 30.9552 20.656ZM25.6441 12.4365C25.6694 12.0892 25.6643 11.5506 25.7603 11.0271C25.8713 10.3929 25.6239 10.0657 25.0686 9.77882C23.9024 9.18488 22.7867 8.50034 21.6255 7.90137C21.3074 7.7403 20.8632 7.6195 20.5401 7.7101C19.1416 8.09767 17.7583 8.55571 16.3801 9.01375C15.4006 9.34092 14.7393 9.91473 14.8251 11.0825C14.8554 11.5153 14.7191 11.9633 14.6635 12.4063C14.3707 14.5757 14.3707 14.5807 16.2437 15.6125C17.309 16.2014 18.354 17.1578 19.4647 17.2484C20.6057 17.339 21.8274 16.5991 23.0037 16.1914C25.523 15.3055 25.523 15.3005 25.6441 12.4365ZM17.1626 36.0733C18.7579 35.8267 20.2321 35.6153 21.6962 35.3435C21.8981 35.3082 22.1404 34.9911 22.201 34.7596C22.4837 33.6673 22.6655 32.555 22.9684 31.4677C23.1148 30.9342 22.9381 30.6574 22.5494 30.3503C21.1964 29.2833 19.8787 28.1658 18.5055 27.1189C18.2177 26.8974 17.7432 26.7766 17.3847 26.8219C15.9408 26.9981 14.4969 27.2347 13.0682 27.5065C12.8006 27.5568 12.4472 27.8588 12.3665 28.1155C12.0333 29.1926 11.7505 30.2849 11.5435 31.3922C11.488 31.6892 11.6698 32.1724 11.907 32.3587C13.4014 33.5314 14.9362 34.6539 16.4709 35.7713C16.6931 35.9374 16.9909 36.0028 17.1626 36.0733ZM33.7016 30.0383C34.8073 29.4745 35.8573 28.9812 36.862 28.4125C37.1346 28.2564 37.3568 27.9142 37.4729 27.6071C38.4725 25.0049 38.7451 22.317 38.3311 19.5587C38.2605 19.1007 36.1653 17.6007 35.7109 17.7165C35.5241 17.7618 35.3676 17.943 35.2162 18.0789C34.4589 18.7483 33.6764 19.3926 32.9696 20.1124C32.6616 20.4245 32.389 20.8724 32.3032 21.2952C31.9548 23.0418 31.662 24.7985 31.3995 26.5551C31.349 26.8924 31.4247 27.3454 31.6216 27.6071C32.2476 28.4326 32.9645 29.1876 33.7016 30.0383ZM13.5125 10.0708C12.9319 9.97513 12.4927 9.92479 12.0585 9.82916C11.2962 9.65802 10.7307 9.85433 10.1754 10.4533C8.46898 12.2905 7.16141 14.3542 6.36374 16.7299C5.65189 18.8591 5.65694 18.8389 7.75209 19.6544C8.22665 19.8406 8.48918 19.7752 8.81228 19.3926C10.0593 17.9128 11.3416 16.4632 12.6037 14.9985C12.735 14.8475 12.8814 14.6612 12.9067 14.47C13.1237 13.0354 13.3105 11.5959 13.5125 10.0708ZM5.52568 20.359C5.52568 21.0335 5.52063 21.6224 5.52568 22.2063C5.57112 25.3421 6.47481 28.2162 8.15597 30.8537C8.52452 31.4275 9.88258 31.6691 10.034 31.1758C10.4531 29.8218 10.756 28.4326 11.0639 27.0484C11.0993 26.8924 10.9074 26.6759 10.8115 26.4947C10.135 25.2112 9.33733 23.973 8.80219 22.6291C8.21151 21.1291 6.93927 20.8171 5.52568 20.359ZM21.9637 5.49037C21.8779 5.586 21.787 5.68164 21.7012 5.77727C21.9436 6.07928 22.1253 6.48195 22.4383 6.67322C23.7105 7.43829 25.0181 8.148 26.3206 8.85268C26.568 8.98858 26.876 9.03388 27.1638 9.07415C28.6329 9.26038 30.102 9.44662 31.5762 9.59762C31.8438 9.62279 32.1265 9.47179 32.4041 9.40635C29.3094 6.74368 25.8612 5.47527 21.9637 5.49037ZM17.208 37.6739C20.8127 38.6907 24.1195 38.6152 27.4667 37.4323C24.0589 36.8887 20.7369 36.4508 17.208 37.6739ZM33.641 10.2771C33.5249 10.3124 33.4139 10.3426 33.2977 10.3778C33.3886 10.6546 33.434 10.9566 33.5704 11.2083C34.368 12.6932 35.2465 14.1377 35.9684 15.6578C36.3319 16.4179 36.8872 16.6847 37.7203 16.9766C36.862 14.3039 35.504 12.1345 33.641 10.2771ZM30.9855 35.6656C32.49 35.0415 35.5443 31.9409 35.8674 30.5013C35.2162 30.8939 34.469 31.1355 34.0399 31.6389C32.9039 32.9778 31.9094 34.4274 30.9855 35.6656Z" fill="#E9EAEC"/>
</svg>
