<svg width="36" height="36" viewBox="0 0 36 36" fill="none" xmlns="http://www.w3.org/2000/svg">
    <path d="M19.2865 35.9289C18.3373 36.0245 17.4135 36.0245 16.7824 35.9239C11.6177 35.3702 7.27093 33.2562 4.00957 29.1942C0.753253 25.1373 -0.574516 20.4562 0.228203 15.3322C1.69228 5.97513 9.76491 -0.502859 19.0138 0.0306812C28.0558 0.549121 35.255 7.63615 35.9467 16.6057C36.6535 25.6608 30.262 34.7964 19.2865 35.9289ZM26.9552 16.656C26.8744 16.5352 26.7583 16.2231 26.5311 16.0419C25.2135 14.9748 23.8857 13.9178 22.5226 12.9162C22.2803 12.735 21.7905 12.7249 21.4775 12.8256C19.9226 13.334 18.403 13.948 16.843 14.4463C16.2371 14.6376 15.9999 14.9648 15.9191 15.5537C15.6616 17.406 15.3536 19.2532 15.1113 21.1106C15.076 21.3723 15.1921 21.7699 15.3839 21.936C16.7672 23.1088 18.1859 24.2514 19.6146 25.3688C19.8166 25.5249 20.2003 25.6557 20.4022 25.5702C22.0985 24.8554 23.7797 24.1004 25.4507 23.3202C25.6527 23.2246 25.8647 22.9528 25.9051 22.7313C26.2636 20.7784 26.5867 18.8153 26.9552 16.656ZM21.6441 8.43646C21.6694 8.08916 21.6643 7.55058 21.7603 7.02711C21.8713 6.3929 21.6239 6.06573 21.0686 5.77882C19.9024 5.18488 18.7867 4.50034 17.6255 3.90137C17.3074 3.7403 16.8632 3.6195 16.5401 3.7101C15.1416 4.09767 13.7583 4.55571 12.3801 5.01375C11.4006 5.34092 10.7393 5.91473 10.8251 7.08248C10.8554 7.51535 10.7191 7.96332 10.6635 8.40626C10.3707 10.5757 10.3707 10.5807 12.2437 11.6125C13.309 12.2014 14.354 13.1578 15.4647 13.2484C16.6057 13.339 17.8274 12.5991 19.0037 12.1914C21.523 11.3055 21.523 11.3005 21.6441 8.43646ZM13.1626 32.0733C14.7579 31.8267 16.2321 31.6153 17.6962 31.3435C17.8981 31.3082 18.1404 30.9911 18.201 30.7596C18.4837 29.6673 18.6655 28.555 18.9684 27.4677C19.1148 26.9342 18.9381 26.6574 18.5494 26.3503C17.1964 25.2833 15.8787 24.1658 14.5055 23.1189C14.2177 22.8974 13.7432 22.7766 13.3847 22.8219C11.9408 22.9981 10.4969 23.2347 9.06821 23.5065C8.80064 23.5568 8.44724 23.8588 8.36646 24.1155C8.03326 25.1926 7.75054 26.2849 7.54355 27.3922C7.48801 27.6892 7.66976 28.1724 7.90704 28.3587C9.40141 29.5314 10.9362 30.6539 12.4709 31.7713C12.6931 31.9374 12.9909 32.0028 13.1626 32.0733ZM29.7016 26.0383C30.8073 25.4745 31.8573 24.9812 32.862 24.4125C33.1346 24.2564 33.3568 23.9142 33.4729 23.6071C34.4725 21.0049 34.7451 18.317 34.3311 15.5587C34.2605 15.1007 32.1653 13.6007 31.7109 13.7165C31.5241 13.7618 31.3676 13.943 31.2162 14.0789C30.4589 14.7483 29.6764 15.3926 28.9696 16.1124C28.6616 16.4245 28.389 16.8724 28.3032 17.2952C27.9548 19.0418 27.662 20.7985 27.3995 22.5551C27.349 22.8924 27.4247 23.3454 27.6216 23.6071C28.2476 24.4326 28.9645 25.1876 29.7016 26.0383ZM9.51248 6.07076C8.9319 5.97513 8.49267 5.92479 8.0585 5.82916C7.29617 5.65802 6.73073 5.85433 6.17539 6.4533C4.46898 8.29049 3.16141 10.3542 2.36374 12.7299C1.65189 14.8591 1.65694 14.8389 3.75209 15.6544C4.22665 15.8406 4.48918 15.7752 4.81228 15.3926C6.05927 13.9128 7.3416 12.4632 8.60374 10.9985C8.735 10.8475 8.88141 10.6612 8.90665 10.47C9.12374 9.03543 9.31054 7.59588 9.51248 6.07076ZM1.52568 16.359C1.52568 17.0335 1.52063 17.6224 1.52568 18.2063C1.57112 21.3421 2.47481 24.2162 4.15597 26.8537C4.52452 27.4275 5.88258 27.6691 6.03403 27.1758C6.45306 25.8218 6.75597 24.4326 7.06393 23.0484C7.09927 22.8924 6.90743 22.6759 6.81151 22.4947C6.135 21.2112 5.33733 19.973 4.80219 18.6291C4.21151 17.1291 2.93927 16.8171 1.52568 16.359ZM17.9637 1.49037C17.8779 1.586 17.787 1.68164 17.7012 1.77727C17.9436 2.07928 18.1253 2.48195 18.4383 2.67322C19.7105 3.43829 21.0181 4.148 22.3206 4.85268C22.568 4.98858 22.876 5.03388 23.1638 5.07415C24.6329 5.26038 26.102 5.44662 27.5762 5.59762C27.8438 5.62279 28.1265 5.47179 28.4041 5.40635C25.3094 2.74368 21.8612 1.47527 17.9637 1.49037ZM13.208 33.6739C16.8127 34.6907 20.1195 34.6152 23.4667 33.4323C20.0589 32.8887 16.7369 32.4508 13.208 33.6739ZM29.641 6.27713C29.5249 6.31237 29.4139 6.34257 29.2977 6.3778C29.3886 6.65464 29.434 6.95664 29.5704 7.20831C30.368 8.69316 31.2465 10.1377 31.9684 11.6578C32.3319 12.4179 32.8872 12.6847 33.7203 12.9766C32.862 10.3039 31.504 8.13446 29.641 6.27713ZM26.9855 31.6656C28.49 31.0415 31.5443 27.9409 31.8674 26.5013C31.2162 26.8939 30.469 27.1355 30.0399 27.6389C28.9039 28.9778 27.9094 30.4274 26.9855 31.6656Z" fill="#E9EAEC" />
</svg>
